<svg xmlns="http://www.w3.org/2000/svg" width="160" height="40" viewBox="0 0 160 40">
    <g fill="#FFF" fill-rule="evenodd">
        <path d="M11.663.976c2.2 0 3.947 1.438 3.947 3.228 0 1.246-.885 2.339-2.193 2.87-.226.094-1.406 1.647-1.666 1.705-.316.06.283-1.38-.088-1.346C9.552 7.4 7.805 5.961 7.805 4.204c0-1.79 1.747-3.228 3.858-3.228M24.878 17.561c-2.425 0-4.39 1.618-4.39 3.63 0 1.404.996 2.633 2.485 3.207.236.129 1.563 1.876 1.905 1.941.306.068-.368-1.552 0-1.519 2.425-.033 4.39-1.65 4.39-3.63 0-2.011-1.965-3.629-4.39-3.629M26.341 5.854c-2.155 0-3.902 1.458-3.902 3.26 0 1.278.885 2.386 2.19 2.962.23.058 1.694 1.522 1.998 1.58.272.062-.613-1.287-.286-1.283 2.156-.004 3.903-1.462 3.903-3.26 0-1.8-1.747-3.26-3.903-3.26M11.707 24.39c-1.616 0-2.927 1.094-2.927 2.445 0 .96.664 1.79 1.642 2.222.173.044 1.271 1.141 1.5 1.185.203.046-.46-.965-.215-.963 1.617-.002 2.927-1.096 2.927-2.444 0-1.35-1.31-2.445-2.927-2.445M7.757 15.61c1.664 0 2.975 1.094 2.975 2.48 0 .924-.664 1.755-1.632 2.182-.183.048-1.281 1.146-1.44 1.19-.273.046.39-.965.097-.992-1.569.027-2.879-1.067-2.879-2.38 0-1.386 1.31-2.48 2.879-2.48M16.05 18.537c1.395 0 2.487.911 2.487 1.99 0 .846-.554 1.539-1.34 1.891-.172.044-1.088.959-1.243.995-.205.038.348-.804.096-.796-1.3-.008-2.391-.92-2.391-2.09 0-1.079 1.091-1.99 2.39-1.99M4.39 6.83c1.886 0 3.415 1.275 3.415 2.817 0 1.153-.775 2.123-1.863 2.6-.254.078-1.535 1.358-1.759 1.41-.28.053.493-1.127.207-1.084C2.504 12.53.976 11.254.976 9.647c0-1.542 1.528-2.818 3.414-2.818M36.098 8.78c-1.617 0-2.927 1.094-2.927 2.416 0 .988.664 1.82 1.596 2.23.218.065 1.317 1.163 1.508 1.207.24.045-.423-.966-.177-.93 1.616-.036 2.926-1.13 2.926-2.507 0-1.322-1.31-2.416-2.926-2.416M21.463 0c-1.616 0-2.926 1.094-2.926 2.415 0 .989.664 1.82 1.596 2.23.218.066 1.316 1.163 1.508 1.207.24.046-.423-.965-.178-.929 1.617-.036 2.927-1.13 2.927-2.508C24.39 1.094 23.08 0 21.463 0M24.339 28.293c1.668 0 2.978 1.094 2.978 2.447 0 .957-.664 1.788-1.643 2.234-.171.03-1.27 1.127-1.438 1.17-.264.047.4-.965.103-.957-1.565-.008-2.876-1.101-2.876-2.447 0-1.353 1.31-2.447 2.876-2.447M18.097 8.78c-1.934 0-3.463 1.277-3.463 2.812 0 1.16.775 2.13 1.924 2.61.193.074 1.475 1.354 1.731 1.406.248.053-.526-1.126-.192-1.104 1.838-.022 3.366-1.299 3.366-2.912 0-1.535-1.528-2.812-3.366-2.812M15.574 38.049c.575 0 1.011.364 1.011.825 0 .31-.22.586-.578.75-.026-.005-.393.36-.433.375-.104.016.118-.321 0-.3-.503-.021-.94-.386-.94-.825 0-.46.437-.825.94-.825M20.435 34.146c-1.025 0-1.898.73-1.898 1.626 0 .643.442 1.198 1.054 1.517.155-.002.887.73 1.055.759.12.03-.322-.644-.21-.65 1.13.006 2.003-.723 2.003-1.626 0-.896-.873-1.626-2.004-1.626M29.708 24.39c1.395 0 2.487.912 2.487 1.99 0 .847-.553 1.54-1.339 1.892-.173.044-1.088.958-1.243.995-.205.038.347-.805.095-.796-1.299-.009-2.39-.92-2.39-2.09 0-1.08 1.091-1.99 2.39-1.99M17.561 28.293c1.078 0 1.951.729 1.951 1.617 0 .652-.442 1.206-1.115 1.428-.094.095-.827.827-.929.856-.186.03.257-.643.093-.666-1.078.023-1.951-.707-1.951-1.618 0-.888.873-1.617 1.951-1.617M5.854 24.39c-1.078 0-1.952.73-1.952 1.582 0 .688.443 1.242 1.13 1.476.08.083.812.814.924.844.176.03-.266-.644-.102-.633 1.077-.011 1.95-.74 1.95-1.687 0-.852-.873-1.582-1.95-1.582M1.951 14.634c-1.077 0-1.951.73-1.951 1.582 0 .687.443 1.241 1.13 1.476.08.083.812.814.924.844.176.03-.266-.644-.103-.633 1.078-.011 1.951-.74 1.951-1.687 0-.853-.873-1.582-1.95-1.582M1.951 20.488c.54 0 .976.364.976.795 0 .34-.221.617-.558.722-.047.053-.413.419-.487.434-.07.015.151-.322.07-.29-.54-.032-.976-.397-.976-.866 0-.43.436-.795.975-.795M28.293.976c-1.078 0-1.952.729-1.952 1.672 0 .597.443 1.151 1.065 1.393.145.075.878.807.975.836.19.03-.252-.644-.088-.65 1.077.006 1.95-.723 1.95-1.58 0-.942-.873-1.671-1.95-1.671M34.146 4.878c1.078 0 1.952.73 1.952 1.658 0 .611-.443 1.165-1.115 1.463-.095.02-.827.751-.93.78-.185.031.257-.643.093-.682-1.077.039-1.95-.69-1.95-1.56 0-.93.873-1.659 1.95-1.659M9.756 12.683c.539 0 .976.365.976.795 0 .34-.222.617-.558.722-.047.053-.413.419-.488.434-.07.015.152-.322.07-.29-.539-.032-.976-.397-.976-.866 0-.43.437-.795.976-.795M30.3 13.659c1.022 0 1.895.729 1.895 1.606 0 .663-.443 1.217-1.115 1.492-.094.042-.827.774-1.003.803-.112.03.33-.644.223-.689-1.134.045-2.007-.684-2.007-1.606 0-.877.873-1.606 2.007-1.606M39.024 15.61c.54 0 .976.364.976.794 0 .34-.221.617-.557.723-.048.053-.414.419-.488.433-.07.016.151-.321.07-.289-.54-.032-.976-.397-.976-.867 0-.43.437-.794.975-.794M35.664 18.537c1.293 0 2.385.911 2.385 2.041 0 .795-.554 1.488-1.41 1.815-.102.07-1.018.984-1.192 1.02-.186.039.367-.804.217-.794-1.401-.01-2.493-.922-2.493-2.041 0-1.13 1.092-2.041 2.493-2.041M19.546 25.366c-.573 0-1.01.364-1.01.836 0 .299.222.576.539.697.066.037.433.403.47.418.106.015-.115-.322 0-.349.506.027.943-.338.943-.766 0-.472-.437-.836-.942-.836M73.98 28.958h-4.14v-8.856h-7.7v8.856H58V9.224h4.14v7.445h7.7V9.224h4.14v19.734zm35.565-11.744c-2.352 0-3.53 1.476-3.53 4.428 0 2.973 1.178 4.46 3.53 4.46 2.353 0 3.53-1.487 3.53-4.46 0-2.952-1.177-4.428-3.53-4.428zm0-3.273c1.155 0 2.193.182 3.113.546.92.363 1.7.882 2.342 1.556.642.674 1.133 1.487 1.476 2.438.342.952.513 2.006.513 3.161 0 1.155-.176 2.208-.53 3.16-.352.953-.85 1.766-1.491 2.44a6.477 6.477 0 0 1-2.342 1.555c-.92.364-1.947.546-3.08.546-1.177 0-2.23-.188-3.161-.562-.93-.374-1.717-.898-2.359-1.572-.641-.674-1.133-1.487-1.476-2.438-.342-.952-.513-1.995-.513-3.129 0-1.155.176-2.203.53-3.145.352-.94.85-1.748 1.491-2.422.642-.674 1.428-1.198 2.359-1.572.93-.375 1.973-.562 3.128-.562zM96.62 9h3.85v19.958h-3.85V9zm-5.74 0h3.851v19.958h-3.85V9zm-5.514 11.23c-.042-1.09-.358-1.898-.946-2.422a2.974 2.974 0 0 0-2.038-.787c-.791 0-1.465.279-2.021.835-.557.556-.877 1.347-.963 2.374h5.968zm-6.096 2.439c.064 1.08.385 1.952.962 2.61.578.657 1.348.983 2.31.983.62 0 1.177-.144 1.669-.438.492-.294.813-.685.963-1.166h3.979c-.45 1.498-1.241 2.653-2.375 3.465-1.134.813-2.482 1.22-4.043 1.22-4.877 0-7.316-2.653-7.316-7.958 0-2.268.61-4.075 1.83-5.422 1.218-1.348 2.962-2.022 5.23-2.022 4.577 0 6.866 2.91 6.866 8.728H79.269zm50.198-9.98h-5.968v16.269h-4.14V12.69h-5.935V9.224h16.043v3.466zm25.624 7.028l4.78 9.24h-4.331l-3.21-6.577-1.892 1.957v4.62h-3.85V9h3.85v10.909l4.813-5.583H160l-4.91 5.391zM140.848 9h3.851v19.958h-3.85V9zm-5.738 12.802c-.385.321-1.059.578-2.021.77-1.327.257-2.225.562-2.696.915-.47.353-.706.84-.706 1.46 0 1.09.578 1.636 1.733 1.636.492 0 .968-.07 1.428-.208.46-.14.861-.348 1.203-.626a3 3 0 0 0 .818-1.06c.204-.427.305-.919.305-1.475 0-.17-.005-.406-.016-.706-.01-.3-.027-.534-.048-.706zm-2.374-7.86c2.074 0 3.63.491 4.668 1.475 1.038.984 1.556 2.417 1.556 4.3v9.24h-3.593a21.138 21.138 0 0 1-.129-.545 5.185 5.185 0 0 1-.096-.642c-.47.493-1.08.861-1.829 1.107-.748.247-1.615.37-2.6.37-1.475 0-2.657-.364-3.545-1.092-.887-.727-1.33-1.732-1.33-3.016 0-1.005.165-1.807.497-2.406a3.618 3.618 0 0 1 1.395-1.412c.599-.342 1.31-.599 2.134-.77.823-.171 1.717-.32 2.68-.45.77-.106 1.374-.277 1.812-.513.439-.235.658-.567.658-.995 0-.555-.257-.973-.77-1.251a3.52 3.52 0 0 0-1.7-.417c-.685 0-1.258.198-1.717.594-.46.395-.734.925-.82 1.588h-3.689c.129-1.626.684-2.893 1.669-3.802.984-.91 2.566-1.364 4.749-1.364z"/>
    </g>
</svg>
